<svg xmlns="http://www.w3.org/2000/svg" width="100%" height="100%" viewBox="0 0 4417 3259" fill-rule="evenodd" stroke-linejoin="round" stroke-miterlimit="1.41421" xmlns:v="https://vecta.io/nano"><style><![CDATA[.B{fill-rule:nonzero}]]></style><g fill="#8f1e1c" class="B"><path d="M2189.181 1221.043c-548.471 0-1046.784 65.938-1415.709 173.396v917.909c368.925 107.458 867.238 173.392 1415.709 173.392 627.738 0 1189.73-86.371 1567.226-222.509v-819.659c-377.496-136.15-939.488-222.529-1567.226-222.529z"/><path d="M3780.932 2051.843c-16.071-44.429-19.288-100.642-5.671-154.842 24.375-97.038 93.421-150.825 154.221-120.138 15.075 7.613 28.225 19.713 39.113 35.075.996-.004 1.992 0 2.979.067 0 0 185.633 221.275 13.804 483.346-3.729 14.871-318.892 382.159-391.846 393.85-47.75 7.65 62.046-374.992 187.4-637.359zM735.33 2008.422c22.083-40.125 29.825-94.95 17.571-151.771-21.942-101.733-99.625-171.292-173.508-155.354-18.325 3.95-34.688 12.8-48.608 25.408-1.175-.242-2.35-.471-3.521-.638 0 0-234.55 174.8-50.238 474.684 3.354 15.588 349.379 453.492 434.63 482.346 55.796 18.883-46.863-385.521-176.325-674.676z"/></g><path d="M406.113 2033.61l.029.063c.771.604 1.488 1.15-.029-.063z" fill="#e33a25" class="B"/><path d="M4137.999 1720.431l-11.092-38.175 127.846-185.213c13.042-18.842 15.708-43.325 7.208-64.813-8.5-21.375-27.042-36.708-49-40.458l-216.192-36.688c-8.367-17.092-17.15-33.925-25.958-50.625l90.821-207.929c9.346-21.196 7.371-45.813-5.013-65.033-12.338-19.317-33.292-30.6-55.621-29.721l-219.4 7.971-34.675-43.838 50.421-222.875c5.104-22.638-1.342-46.325-17.096-62.767-15.675-16.383-38.454-23.163-60.108-17.846l-213.704 52.533-42.142-36.138 7.7-228.809c.825-23.163-9.971-45.171-28.517-58.021-18.525-12.933-42.054-14.888-62.317-5.275l-199.363 94.779-48.517-27.154-35.229-225.479c-3.571-22.842-18.271-42.242-38.858-51.104-20.513-8.908-44.033-6.033-62.046 7.533L2819.402 318.65l-52.883-16.713-76.608-213.821c-7.792-21.788-25.754-37.796-47.658-42.296-21.829-4.463-44.292 3.096-59.429 20.008L2433.21 233.213l-54.346-5.55-115.513-194.638c-11.708-19.717-32.375-31.717-54.65-31.717-22.225 0-42.933 12-54.542 31.717l-115.554 194.638c-18.158 1.567-36.342 3.467-54.4 5.55L1834.581 65.829c-15.15-16.913-37.696-24.471-59.45-20.008-21.896 4.55-39.888 20.508-47.638 42.296l-76.675 213.821c-17.75 5.325-35.338 10.946-52.879 16.713l-177.683-133.363c-18.067-13.608-41.583-16.479-62.15-7.533-20.496 8.863-35.254 28.263-38.804 51.104l-35.254 225.479-48.554 27.154-199.342-94.779c-20.242-9.646-43.871-7.658-62.308 5.275-18.521 12.85-29.342 34.858-28.5 58.021l7.646 228.809-42.133 36.138-213.663-52.533c-21.713-5.271-44.458 1.463-60.171 17.846-15.813 16.442-22.217 40.129-17.138 62.767l50.329 222.875-34.554 43.838-219.396-7.971c-22.146-.654-43.279 10.404-55.65 29.721-12.396 19.221-14.271 43.838-5.046 65.033l90.892 207.929-26.038 50.625-216.179 36.688c-21.963 3.7-40.475 19.025-49.017 40.458-8.488 21.488-5.733 45.971 7.229 64.813l127.875 185.213-2.875 9.85-70.263 74.633 188.921 266.871s1813.135 836.384 3494.99 14.15c192.117-34.471 236.896-327.329 236.896-327.329z" fill="#e43a25" class="B"/><path d="M2534.598 1569.83s200.654-219.704 401.313 0c0 0 157.667 292.967 0 439.43 0 0-257.988 205.071-401.313 0 0 0-171.996-161.133 0-439.43z" fill="#030404" class="B"/><path d="M2766.906 1651.335c0 85.554-50.429 154.913-112.625 154.913-62.183 0-112.613-69.358-112.613-154.913s50.429-154.917 112.613-154.917c62.196 0 112.625 69.367 112.625 154.917z" fill="#fff" class="B"/><path d="M1639.022 1509.839s344.2-152.4 438.142 187.758c0 0 98.408 396.475-282.654 418.855 0 0-485.925-93.592-155.488-606.613z" fill="#030404" class="B"/><path d="M1811.897 1656.951c0 88.221-52 159.775-116.154 159.775-64.129 0-116.142-71.554-116.142-159.775 0-88.242 52.013-159.775 116.142-159.775 64.154 0 116.154 71.533 116.154 159.775z" fill="#fff" class="B"/><g fill="#e43a25" class="B"><path d="M465.009 2080.068c45.696-51.929 156.713-114.821 148.208-192.842-15.221-139.696-131.067-241.663-258.746-227.746-31.667 3.45-61.075 13.717-87.183 29.317-1.925-.446-3.854-.879-5.783-1.225 0 0-431.796 211.971-185.683 636.071 2.321 21.404 491.034 648.617 628.284 696.38 89.829 31.258-82.963-536-239.096-939.955zm3508.115-18.929c-52.888-44.583-192.342-85.075-195.5-163.492-5.65-140.408 93.8-258.421 222.134-263.584 31.825-1.283 62.433 4.513 90.563 16.071 1.842-.725 3.683-1.442 5.538-2.071 0 0 458.438 145.629 277.896 601.525.875 21.513-389.45 714.234-518.105 781.813-84.204 44.229 22.942-547.63 117.475-970.263zm-3176.698 3.688s-5.763 572.067 554.859 699.717l116.892-234.846s-406.229 39.296-437.48-464.871H796.426zm2855.085 0s5.758 572.067-554.863 699.717l-116.892-234.846s406.229 39.296 437.48-464.871h234.275z"/><path d="M3246.532 2648.298c-84.375-203.925-356.646-284.888-608.13-180.833-221.359 91.588-352.654 295.967-323.434 482.688 174.775-2.717 362.25-14.046 544.734-40.492 0 0-107.654 174.013-266.071 325.879 106.525 27.496 230.763 19.867 350.317-29.6 251.488-104.054 386.959-353.721 302.584-557.642zm-1560.089 251.638s230.013 30.396 544.459 38.15c27.542-197.963-122.417-407.467-361.671-488.513-264.325-89.533-537.455 11.633-610.059 225.967s82.817 460.667 347.142 550.205c117.171 39.692 236.054 41.871 338.454 13.363-153.796-152.104-258.325-339.171-258.325-339.171z"/></g></svg>