<svg xmlns="http://www.w3.org/2000/svg" width="100%" height="100%" viewBox="0 0 1200 800" fill-rule="nonzero" stroke-linejoin="round" stroke-miterlimit="1.41421" xmlns:v="https://vecta.io/nano"><path d="M1009.4 499.159l-12.072-25.006.111-2.853c0-28.346-29.478-54.471-79.069-75.389v17.393a348.81 348.81 0 0 0-15.117-5.593v-8.108c-70.874-25.56-176.383-41.778-294.241-41.778-102.973 0-196.529 12.38-265.791 32.554v28.246h-.002v-34.188c-70.96 22.55-114.954 53.877-114.954 88.515 0 5.46 1.101 10.838 3.217 16.113l-7.228 12.867s-5.792 7.512 4.406 23.362c8.994 13.977 54.048 68.685 77.827 97.335 10.214 14.687 17.141 23.734 17.746 22.859.955-1.386-6.351-28.961-26.635-60.423-9.466-16.895-20.768-39.283-27.554-55.819 18.942 11.99 130.23 68.029 357.232 67.801 231.994-.232 335.115-72.851 346.433-82.737-3.955 15.889-17.468 48.033-28.245 70.638-17.706 32.331-24.12 60.478-23.296 61.87.524.878 6.565-8.441 15.476-23.543 20.731-29.543 60.017-85.939 67.867-100.305 8.896-16.285 3.889-23.811 3.889-23.811" fill="#a52b00"/><g fill="#f74c00"><path d="M1079.49 499.02l-79.343-58.446-2.26-7.781 26.062-37.754c2.66-3.84 3.196-8.832 1.469-13.211-1.731-4.358-5.515-7.482-9.99-8.247l-44.066-7.479c-1.709-3.485-3.498-6.916-5.294-10.319l18.515-42.388a14.08 14.08 0 0 0-1.022-13.254c-2.517-3.937-6.786-6.237-11.338-6.058l-44.724 1.625c-2.315-3.016-4.667-6.003-7.067-8.937l10.278-45.432c1.042-4.612-.274-9.443-3.487-12.794-3.195-3.339-7.838-4.722-12.253-3.639l-43.562 10.709-8.588-7.365 1.567-46.641c.168-4.721-2.033-9.208-5.812-11.829-3.777-2.636-8.57-3.032-12.701-1.074l-40.638 19.321-9.892-5.537-7.181-45.961c-.729-4.656-3.724-8.612-7.919-10.418-4.185-1.817-8.976-1.228-12.648 1.536l-36.232 27.185-10.779-3.407-15.617-43.585c-1.588-4.443-5.25-7.706-9.716-8.624-4.45-.909-9.028.632-12.114 4.08l-30.499 34.119-11.076-1.131-23.549-39.676c-2.384-4.018-6.597-6.464-11.139-6.464-4.529 0-8.75 2.446-11.118 6.464l-23.555 39.676a399.69 399.69 0 0 0-11.088 1.131l-30.499-34.119c-3.09-3.448-7.684-4.989-12.122-4.08-4.46.93-8.128 4.181-9.707 8.624l-15.629 43.585c-3.621 1.087-7.205 2.23-10.78 3.407l-36.22-27.185c-3.683-2.774-8.478-3.361-12.668-1.536-4.181 1.806-7.188 5.762-7.913 10.418l-7.186 45.961-9.895 5.537-40.634-19.321a12.6 12.6 0 0 0-12.704 1.074c-3.773 2.621-5.98 7.108-5.81 11.829l1.562 46.641-8.591 7.365-43.554-10.709c-4.423-1.074-9.062.3-12.265 3.639-3.221 3.351-4.526 8.182-3.491 12.794l10.257 45.432-7.042 8.937-44.724-1.625c-4.513-.135-8.821 2.121-11.343 6.058-2.527 3.919-2.91 8.937-1.029 13.254l18.528 42.388-5.309 10.319-44.063 7.479c-4.479.754-8.252 3.876-9.994 8.247-1.728 4.379-1.167 9.371 1.474 13.211l26.066 37.754-.587 2.008-73.696 78.285s-11.296 8.851 5.147 29.654c14.5 18.351 88.951 91.096 128.271 129.205 16.606 19.348 27.984 31.329 29.172 30.293 1.876-1.645-7.972-36.847-40.682-78.149-25.216-37.056-57.941-94.049-50.267-100.618 0 0 8.729-11.081 26.242-19.057.641.512-.662-.507 0 0 0 0 369.595 170.491 712.429 2.884 39.164-7.025 62.873 13.955 62.873 13.955 8.176 4.74-12.996 63.344-30.407 102.137-23.679 44.05-27.151 78.422-25.144 79.614 1.268.757 9.883-12.353 22.172-33.217 30.324-42.253 87.646-122.802 98.138-142.368 11.895-22.182 0-28.399 0-28.399"/><path d="M917.896 477.145s53.179-2.466 123.032-73.462l9.898-21.979s-108.417-107.848 60.118-182.291c0 0-14.755 24.112-10.426 117.272 0 0 50.815-17.649 65.714-99.94 0 0 74.12 97.724-80.502 189.377 0 0-72.54 116.289-174.805 105.15l6.971-34.127z"/></g><path d="M676.997 410.169s36.935-40.443 73.871 0c0 0 29.022 53.927 0 80.887 0 0-47.487 37.748-73.871 0 0 0-31.658-29.659 0-80.887"/><path d="M719.761 425.173c0 15.746-9.282 28.514-20.732 28.514s-20.73-12.768-20.73-28.514 9.282-28.518 20.73-28.518 20.732 12.768 20.732 28.518" fill="#fff"/><path d="M512.148 399.127s63.355-28.052 80.648 34.562c0 0 18.114 72.98-52.03 77.099 0 0-89.444-17.228-28.618-111.661"/><path d="M543.968 426.206c0 16.239-9.572 29.409-21.381 29.409s-21.379-13.17-21.379-29.409c0-16.244 9.575-29.411 21.379-29.411s21.381 13.167 21.381 29.411" fill="#fff"/><path d="M593.317 536.303l80.796-6.484s-2.738 13.006-13.279 22.769c0 0-27.79 30.47-59.673-2.533 0 0-5.217-5.629-7.844-13.752"/><path d="M269.796 461.519c-.667 0-1.321.049-1.973.101-26.234-5.971-99.973-25.185-119.464-56.363 0 0 99.227-112.872-55.86-185.019l18.057 124.878S62.747 313.167 52.43 243.77c0 0-116.423 84.494 51.384 165.474 0 0 15.22 57.187 161.349 102.815l.107-.435a24.82 24.82 0 0 0 4.526.435c13.808 0 25.003-11.312 25.003-25.271s-11.195-25.269-25.003-25.269" fill="#f74c00"/></svg>