<svg xmlns="http://www.w3.org/2000/svg" width="100%" height="100%" viewBox="0 0 1200 800" fill-rule="evenodd" stroke-linejoin="round" stroke-miterlimit="1.41421" xmlns:v="https://vecta.io/nano"><style><![CDATA[.B{fill-rule:nonzero}.C{fill:#f74c00}]]></style><path d="M654.172 345.711C539.575 345.711 436 359.49 358 381.94v-5.071c-78 25.095-127.681 59.959-127.681 98.506 0 6.077 1.345 12.062 3.703 17.931l-7.984 14.321s-6.413 8.359 4.935 25.999c10.01 15.554 60.164 76.438 86.628 108.32 11.367 16.348 19.083 26.413 19.757 25.44 1.061-1.543-7.064-32.229-29.639-67.242-10.533-18.805-23.358-43.719-30.908-62.12C297.892 551.366 326 563.469 358 573.885v-.159c78 22.453 181.575 36.229 296.172 36.229 131.156 0 248.828-18.046 327.828-46.491V392.206c-79-28.447-196.672-46.495-327.828-46.495m445.698 158.83l-13.433-27.828.124-3.175c0-31.548-32.805-60.62-87.997-83.901v167.802c25.751-10.864 46.645-22.984 61.586-36.037-4.398 17.683-19.437 53.455-31.428 78.611-19.707 35.981-26.845 67.303-25.929 68.853.584.978 7.307-9.393 17.222-26.2 23.072-32.876 66.792-95.64 75.53-111.627 9.899-18.123 4.325-26.498 4.325-26.498" fill="#a52b00" class="B"/><path d="M1177.87 504.385l-88.296-65.043-2.516-8.658 29.002-42.016c2.961-4.274 3.558-9.829 1.635-14.703-1.925-4.85-6.136-8.327-11.117-9.179l-49.043-8.321c-1.898-3.879-3.89-7.698-5.889-11.484l20.604-47.172c2.119-4.806 1.673-10.39-1.139-14.751-2.797-4.383-7.551-6.942-12.617-6.743l-49.77 1.809-7.866-9.946 11.438-50.56c1.159-5.132-.302-10.508-3.879-14.238-3.555-3.716-8.722-5.254-13.636-4.05l-48.478 11.919-9.559-8.196 1.745-51.907c.188-5.254-2.262-10.247-6.468-13.163-4.204-2.934-9.54-3.376-14.138-1.196l-45.226 21.502-11.005-6.163-7.991-51.148c-.812-5.181-4.146-9.584-8.815-11.594-4.655-2.022-9.99-1.367-14.077 1.71l-40.321 30.253-11.996-3.792-17.38-48.504c-1.766-4.945-5.842-8.576-10.81-9.597-4.953-1.012-10.048.703-13.483 4.539l-33.938 37.971-12.327-1.259-26.208-44.154c-2.656-4.472-7.344-7.193-12.397-7.193-5.041 0-9.739 2.721-12.372 7.193l-26.214 44.154a447.43 447.43 0 0 0-12.341 1.259l-33.943-37.971c-3.437-3.836-8.551-5.551-13.487-4.539-4.966 1.035-9.045 4.652-10.806 9.597l-17.393 48.504c-4.027 1.209-8.017 2.482-11.997 3.792l-40.308-30.253c-4.098-3.088-9.432-3.741-14.098-1.71-4.65 2.01-7.997 6.413-8.803 11.594l-7.997 51.148-11.014 6.163-45.222-21.502c-4.592-2.189-9.952-1.738-14.135 1.196-4.201 2.916-6.656 7.909-6.466 13.163l1.736 51.907-9.558 8.196-48.47-11.919c-4.925-1.195-10.086.334-13.65 4.05-3.585 3.73-5.039 9.106-3.885 14.238l11.415 50.56-7.839 9.946-49.771-1.809c-5.023-.148-9.817 2.36-12.623 6.743-2.812 4.361-3.237 9.945-1.146 14.751l20.619 47.172-5.906 11.484-49.04 8.321c-4.982.841-9.183 4.316-11.12 9.179-1.925 4.874-1.3 10.429 1.639 14.703l29.01 42.016-.653 2.233-82.021 87.122s-12.56 9.851 5.73 33.002c16.14 20.421 98.993 101.376 142.752 143.789 18.483 21.532 31.143 34.866 32.466 33.712 2.088-1.832-8.871-41.006-45.275-86.97-28.06-41.239-64.478-104.666-55.939-111.977 0 0 9.714-12.331 29.204-21.207.713.571-.737-.565 0 0 0 0 411.314 189.736 792.846 3.21 43.584-7.817 69.968 15.529 69.968 15.529 9.099 5.276-14.463 70.495-33.838 113.666-26.353 49.023-30.217 87.276-27.982 88.602 1.409.842 10.998-13.747 24.674-36.966 33.745-47.023 97.539-136.665 109.214-158.438 13.239-24.687 0-31.606 0-31.606" class="B C"/><path d="M795.856 624.568l2.4-2.139-134.65-12.507c109.902-144.985 197.868-28.018 207.238-15.106v29.752h-74.988z" class="B"/><path d="M278.418 464.831s-111.096-43.25-129.876-89.798c0 0 130.391-103.717-25.621-213.886l-4.229 140.417S72.466 256.97 74.506 178.881c0 0-143.773 69.178 24.476 191.577 0 0 5.676 65.698 156.977 145.017l22.459-50.644z" class="B C"/><path d="M729.948 405.507s41.104-45.009 82.21 0c0 0 32.297 60.013 0 90.016 0 0-52.85 42.009-82.21 0 0 0-35.232-33.006 0-90.016" class="B"/><path d="M777.536 422.204c0 17.523-10.329 31.73-23.07 31.73s-23.069-14.207-23.069-31.73c0-17.529 10.33-31.738 23.069-31.738s23.07 14.209 23.07 31.738" fill="#fff" class="B"/><path d="M546.49 393.217s70.508-31.219 89.753 38.463c0 0 20.159 81.218-57.902 85.802 0 0-99.541-19.172-31.851-124.265" class="B"/><path d="M581.903 423.353c0 18.072-10.653 32.729-23.794 32.729s-23.792-14.657-23.792-32.729c0-18.078 10.655-32.731 23.792-32.731s23.794 14.653 23.794 32.731" fill="#fff" class="B"/><path d="M1002.23 481.871s-14.723 58.643-106.292 120.267l-25.678 6.018s-83.066-151.481-200.749 19.221c0 0 36.677-21.354 135 4.65 0 0-45.23 69.226-136.342 67.099 0 0 87.313 104.749 220.18-46.554 0 0 140.455-54.315 151.845-170.701h-37.964z" class="B C"/></svg>